<mxfile host="app.diagrams.net" agent="Mozilla/5.0 (Windows NT 10.0; Win64; x64) AppleWebKit/537.36 (KHTML, like Gecko) Chrome/131.0.0.0 Safari/537.36" version="24.9.1">
  <diagram name="Página-1" id="f_q8cS4vE7_yf7XK-pqQ">
    <mxGraphModel grid="1" page="1" gridSize="10" guides="1" tooltips="1" connect="1" arrows="1" fold="1" pageScale="1" pageWidth="850" pageHeight="1100" math="0" shadow="0">
      <root>
        <mxCell id="0" />
        <mxCell id="1" parent="0" />
        <mxCell id="v5h-tJ-QY-LsD-NnWijm-1" style="edgeStyle=orthogonalEdgeStyle;rounded=0;orthogonalLoop=1;jettySize=auto;html=1;dashed=1;strokeWidth=2;fillColor=#f5f5f5;strokeColor=#666666;" edge="1" parent="1" target="v5h-tJ-QY-LsD-NnWijm-7">
          <mxGeometry relative="1" as="geometry">
            <mxPoint x="355" y="415" as="sourcePoint" />
            <mxPoint x="290" y="415" as="targetPoint" />
          </mxGeometry>
        </mxCell>
        <mxCell id="v5h-tJ-QY-LsD-NnWijm-2" style="edgeStyle=none;rounded=0;orthogonalLoop=1;jettySize=auto;html=1;dashed=1;strokeColor=#666666;strokeWidth=2;fillColor=#f5f5f5;entryX=0.5;entryY=0;entryDx=0;entryDy=0;entryPerimeter=0;" edge="1" parent="1" source="v5h-tJ-QY-LsD-NnWijm-8" target="v5h-tJ-QY-LsD-NnWijm-47">
          <mxGeometry relative="1" as="geometry">
            <mxPoint x="425.125" y="590" as="targetPoint" />
            <mxPoint x="515" y="415" as="sourcePoint" />
          </mxGeometry>
        </mxCell>
        <mxCell id="v5h-tJ-QY-LsD-NnWijm-3" style="edgeStyle=none;rounded=0;orthogonalLoop=1;jettySize=auto;html=1;dashed=1;strokeColor=#707070;strokeWidth=2;fontColor=#707070;entryX=0.75;entryY=1;entryDx=0;entryDy=0;endArrow=none;endFill=0;exitX=0.25;exitY=0;exitDx=0;exitDy=0;exitPerimeter=0;" edge="1" parent="1" source="v5h-tJ-QY-LsD-NnWijm-7" target="v5h-tJ-QY-LsD-NnWijm-31">
          <mxGeometry relative="1" as="geometry">
            <mxPoint x="288.7027027027027" y="240" as="sourcePoint" />
          </mxGeometry>
        </mxCell>
        <mxCell id="v5h-tJ-QY-LsD-NnWijm-4" value="&lt;b&gt;Status Dashboard&lt;br&gt;(Context)&lt;/b&gt;" style="text;html=1;align=left;verticalAlign=middle;resizable=0;points=[];autosize=1;fontColor=#666666;" vertex="1" parent="1">
          <mxGeometry x="77" y="750" width="120" height="30" as="geometry" />
        </mxCell>
        <object placeholders="1" c4Name="Cidadão" c4Type="Persona" c4Description="Usuário padrão do sistema" label="&lt;b&gt;%c4Name%&lt;/b&gt;&lt;div&gt;[%c4Type%]&lt;/div&gt;&lt;br&gt;&lt;div&gt;%c4Description%&lt;/div&gt;" id="v5h-tJ-QY-LsD-NnWijm-6">
          <mxCell style="html=1;dashed=0;whitespace=wrap;fillColor=#08427b;strokeColor=none;fontColor=#ffffff;shape=mxgraph.c4.person;align=center;metaEdit=1;points=[[0.5,0,0],[1,0.5,0],[1,0.75,0],[0.75,1,0],[0.5,1,0],[0.25,1,0],[0,0.75,0],[0,0.5,0]];metaData={&quot;c4Type&quot;:{&quot;editable&quot;:false}};" vertex="1" parent="1">
            <mxGeometry x="-120" y="-40" width="150" height="180" as="geometry" />
          </mxCell>
        </object>
        <object placeholders="1" c4Name="Sistema de Alertas/Relatórios" c4Type="Software" c4Description="Envia alertas/relatórios utilizando&#xa;Firebase Cloud Messaging" label="&lt;b&gt;%c4Name%&lt;/b&gt;&lt;div&gt;[%c4Type%]&lt;/div&gt;&lt;br&gt;&lt;div&gt;%c4Description%&lt;/div&gt;" id="v5h-tJ-QY-LsD-NnWijm-7">
          <mxCell style="rounded=1;whiteSpace=wrap;html=1;labelBackgroundColor=none;fillColor=#999999;fontColor=#ffffff;align=center;arcSize=10;strokeColor=#8A8A8A;metaEdit=1;metaData={&quot;c4Type&quot;:{&quot;editable&quot;:false}};points=[[0.25,0,0],[0.5,0,0],[0.75,0,0],[1,0.25,0],[1,0.5,0],[1,0.75,0],[0.75,1,0],[0.5,1,0],[0.25,1,0],[0,0.75,0],[0,0.5,0],[0,0.25,0]];" vertex="1" parent="1">
            <mxGeometry x="170" y="150" width="160" height="110.00000000000001" as="geometry" />
          </mxCell>
        </object>
        <object placeholders="1" c4Name="Sistema InfoDengue" c4Type="Software System" c4Description="Melhorar a coleta e análise de dados&#xa;sobre a dengue, servindo como canal&#xa;de comunicação e orientação para a&#xa;população" label="&lt;b&gt;%c4Name%&lt;/b&gt;&lt;div&gt;[%c4Type%]&lt;/div&gt;&lt;br&gt;&lt;div&gt;%c4Description%&lt;/div&gt;" id="v5h-tJ-QY-LsD-NnWijm-8">
          <mxCell style="rounded=1;whiteSpace=wrap;html=1;labelBackgroundColor=none;fillColor=#1168BD;fontColor=#ffffff;align=center;arcSize=10;strokeColor=#1168BD;metaEdit=1;metaData={&quot;c4Type&quot;:{&quot;editable&quot;:false}};points=[[0.25,0,0],[0.5,0,0],[0.75,0,0],[1,0.25,0],[1,0.5,0],[1,0.75,0],[0.75,1,0],[0.5,1,0],[0.25,1,0],[0,0.75,0],[0,0.5,0],[0,0.25,0]];" vertex="1" parent="1">
            <mxGeometry x="316" y="360" width="219" height="130" as="geometry" />
          </mxCell>
        </object>
        <mxCell id="v5h-tJ-QY-LsD-NnWijm-10" value="" style="group" connectable="0" vertex="1" parent="1">
          <mxGeometry x="77" y="820" width="696" height="220" as="geometry" />
        </mxCell>
        <mxCell id="v5h-tJ-QY-LsD-NnWijm-11" value="" style="rounded=1;whiteSpace=wrap;html=1;fillColor=none;strokeColor=#666666;dashed=1;dashPattern=1 2;fontColor=#666666;" vertex="1" parent="v5h-tJ-QY-LsD-NnWijm-10">
          <mxGeometry width="696" height="220" as="geometry" />
        </mxCell>
        <mxCell id="v5h-tJ-QY-LsD-NnWijm-12" value="Legenda" style="text;html=1;strokeColor=none;fillColor=none;align=center;verticalAlign=middle;whiteSpace=wrap;rounded=0;fontStyle=1;fontColor=#666666;" vertex="1" parent="v5h-tJ-QY-LsD-NnWijm-10">
          <mxGeometry x="19" y="10" width="61" height="20" as="geometry" />
        </mxCell>
        <object placeholders="1" c4Name="nome" c4Type="Persona" c4Description="Descrição" label="&lt;b style=&quot;font-size: 9px;&quot;&gt;%c4Name%&lt;/b&gt;&lt;div style=&quot;font-size: 9px;&quot;&gt;[%c4Type%]&lt;/div&gt;&lt;br style=&quot;font-size: 9px;&quot;&gt;&lt;div style=&quot;font-size: 9px;&quot;&gt;%c4Description%&lt;/div&gt;" id="v5h-tJ-QY-LsD-NnWijm-13">
          <mxCell style="html=1;dashed=0;whitespace=wrap;fillColor=#08427b;strokeColor=none;fontColor=#ffffff;shape=mxgraph.c4.person;align=center;metaEdit=1;points=[[0.5,0,0],[1,0.5,0],[1,0.75,0],[0.75,1,0],[0.5,1,0],[0.25,1,0],[0,0.75,0],[0,0.5,0]];metaData={&quot;c4Type&quot;:{&quot;editable&quot;:false}};fontSize=9;" vertex="1" parent="v5h-tJ-QY-LsD-NnWijm-10">
            <mxGeometry x="19" y="35" width="60" height="80" as="geometry" />
          </mxCell>
        </object>
        <object c4Name="nome" c4Type="Software" c4Description="Descrição" label="&lt;b style=&quot;font-size: 9px;&quot;&gt;%c4Name%&lt;/b&gt;&lt;div style=&quot;font-size: 9px;&quot;&gt;[%c4Type%]&lt;/div&gt;&lt;br style=&quot;font-size: 9px;&quot;&gt;&lt;div style=&quot;font-size: 9px;&quot;&gt;%c4Description%&lt;/div&gt;" placeholders="1" id="v5h-tJ-QY-LsD-NnWijm-14">
          <mxCell style="rounded=1;whiteSpace=wrap;html=1;labelBackgroundColor=none;fillColor=#1168BD;fontColor=#ffffff;align=center;arcSize=10;strokeColor=#1168BD;metaEdit=1;metaData={&quot;c4Type&quot;:{&quot;editable&quot;:false}};points=[[0.25,0,0],[0.5,0,0],[0.75,0,0],[1,0.25,0],[1,0.5,0],[1,0.75,0],[0.75,1,0],[0.5,1,0],[0.25,1,0],[0,0.75,0],[0,0.5,0],[0,0.25,0]];fontSize=9;" vertex="1" parent="v5h-tJ-QY-LsD-NnWijm-10">
            <mxGeometry x="98" y="42.5" width="90" height="65" as="geometry" />
          </mxCell>
        </object>
        <object placeholders="1" c4Name="nome" c4Type="Software" c4Description="Descrição" label="&lt;b style=&quot;font-size: 9px;&quot;&gt;%c4Name%&lt;/b&gt;&lt;div style=&quot;font-size: 9px;&quot;&gt;[%c4Type%]&lt;/div&gt;&lt;br style=&quot;font-size: 9px;&quot;&gt;&lt;div style=&quot;font-size: 9px;&quot;&gt;%c4Description%&lt;/div&gt;" id="v5h-tJ-QY-LsD-NnWijm-15">
          <mxCell style="rounded=1;whiteSpace=wrap;html=1;labelBackgroundColor=none;fillColor=#999999;fontColor=#ffffff;align=center;arcSize=10;strokeColor=#8A8A8A;metaEdit=1;metaData={&quot;c4Type&quot;:{&quot;editable&quot;:false}};points=[[0.25,0,0],[0.5,0,0],[0.75,0,0],[1,0.25,0],[1,0.5,0],[1,0.75,0],[0.75,1,0],[0.5,1,0],[0.25,1,0],[0,0.75,0],[0,0.5,0],[0,0.25,0]];fontSize=9;" vertex="1" parent="v5h-tJ-QY-LsD-NnWijm-10">
            <mxGeometry x="203.5" y="42.5" width="90" height="65" as="geometry" />
          </mxCell>
        </object>
        <object placeholders="1" c4Name="name" c4Type="Component" c4Technology="technology" c4Description="Descrição" label="&lt;b style=&quot;font-size: 9px;&quot;&gt;%c4Name%&lt;/b&gt;&lt;div style=&quot;font-size: 9px;&quot;&gt;[%c4Type%: %c4Technology%]&lt;/div&gt;&lt;br style=&quot;font-size: 9px;&quot;&gt;&lt;div style=&quot;font-size: 9px;&quot;&gt;%c4Description%&lt;/div&gt;" id="v5h-tJ-QY-LsD-NnWijm-16">
          <mxCell style="rounded=1;whiteSpace=wrap;html=1;labelBackgroundColor=none;fillColor=#85BBF0;fontColor=#ffffff;align=center;arcSize=10;strokeColor=#78A8D8;metaEdit=1;metaData={&quot;c4Type&quot;:{&quot;editable&quot;:false}};points=[[0.25,0,0],[0.5,0,0],[0.75,0,0],[1,0.25,0],[1,0.5,0],[1,0.75,0],[0.75,1,0],[0.5,1,0],[0.25,1,0],[0,0.75,0],[0,0.5,0],[0,0.25,0]];fontSize=9;" vertex="1" parent="v5h-tJ-QY-LsD-NnWijm-10">
            <mxGeometry x="426" y="42.5" width="90" height="65" as="geometry" />
          </mxCell>
        </object>
        <object placeholders="1" c4Name="name" c4Type="Container" c4Technology="technology" c4Description="Descrição" label="&lt;b style=&quot;font-size: 9px;&quot;&gt;%c4Name%&lt;/b&gt;&lt;div style=&quot;font-size: 9px;&quot;&gt;[%c4Type%: %c4Technology%]&lt;/div&gt;&lt;br style=&quot;font-size: 9px;&quot;&gt;&lt;div style=&quot;font-size: 9px;&quot;&gt;%c4Description%&lt;/div&gt;" id="v5h-tJ-QY-LsD-NnWijm-17">
          <mxCell style="rounded=1;whiteSpace=wrap;html=1;labelBackgroundColor=none;fillColor=#438DD5;fontColor=#ffffff;align=center;arcSize=10;strokeColor=#3C7FC0;metaEdit=1;metaData={&quot;c4Type&quot;:{&quot;editable&quot;:false}};points=[[0.25,0,0],[0.5,0,0],[0.75,0,0],[1,0.25,0],[1,0.5,0],[1,0.75,0],[0.75,1,0],[0.5,1,0],[0.25,1,0],[0,0.75,0],[0,0.5,0],[0,0.25,0]];fontSize=9;" vertex="1" parent="v5h-tJ-QY-LsD-NnWijm-10">
            <mxGeometry x="314.5" y="42.5" width="90" height="65" as="geometry" />
          </mxCell>
        </object>
        <object placeholders="1" c4Name="nome" c4Type="ExecutionEnvironment" c4Application="aplicaçãoEVersão" label="&lt;div style=&quot;text-align: left; font-size: 9px;&quot;&gt;%c4Name%&lt;/div&gt;&lt;div style=&quot;text-align: left; font-size: 9px;&quot;&gt;[%c4Application%]&lt;/div&gt;" id="v5h-tJ-QY-LsD-NnWijm-18">
          <mxCell style="rounded=1;whiteSpace=wrap;html=1;labelBackgroundColor=none;fillColor=#ffffff;fontColor=#000000;align=left;arcSize=5;strokeColor=#000000;verticalAlign=bottom;metaEdit=1;metaData={&quot;c4Type&quot;:{&quot;editable&quot;:false}};points=[[0.25,0,0],[0.5,0,0],[0.75,0,0],[1,0.25,0],[1,0.5,0],[1,0.75,0],[0.75,1,0],[0.5,1,0],[0.25,1,0],[0,0.75,0],[0,0.5,0],[0,0.25,0]];fontSize=9;" vertex="1" parent="v5h-tJ-QY-LsD-NnWijm-10">
            <mxGeometry x="59" y="130" width="141" height="60" as="geometry" />
          </mxCell>
        </object>
        <object placeholders="1" c4Name="hostname" c4Type="DeploymentNode" c4OperationSystem="operationSystem" c4ScalingFactor="" label="&lt;div style=&quot;text-align: left; font-size: 9px;&quot;&gt;%c4Name%&lt;/div&gt;&lt;div style=&quot;text-align: left; font-size: 9px;&quot;&gt;[%c4OperationSystem%]&lt;/div&gt;&lt;div style=&quot;text-align: right; font-size: 9px;&quot;&gt;%c4ScalingFactor%&lt;/div&gt;" id="v5h-tJ-QY-LsD-NnWijm-19">
          <mxCell style="rounded=1;whiteSpace=wrap;html=1;labelBackgroundColor=none;fillColor=#ffffff;fontColor=#000000;align=left;arcSize=5;strokeColor=#000000;verticalAlign=bottom;metaEdit=1;metaData={&quot;c4Type&quot;:{&quot;editable&quot;:false}};points=[[0.25,0,0],[0.5,0,0],[0.75,0,0],[1,0.25,0],[1,0.5,0],[1,0.75,0],[0.75,1,0],[0.5,1,0],[0.25,1,0],[0,0.75,0],[0,0.5,0],[0,0.25,0]];fontSize=9;" vertex="1" parent="v5h-tJ-QY-LsD-NnWijm-10">
            <mxGeometry x="220" y="130" width="140" height="60" as="geometry" />
          </mxCell>
        </object>
        <object placeholders="1" c4Type="Database" c4Technology="Technology" c4Description="Descrição" label="%c4Type%&lt;div style=&quot;font-size: 9px;&quot;&gt;[Container:&amp;nbsp;%c4Technology%]&lt;/div&gt;&lt;br style=&quot;font-size: 9px;&quot;&gt;&lt;div style=&quot;font-size: 9px;&quot;&gt;%c4Description%&lt;/div&gt;" id="v5h-tJ-QY-LsD-NnWijm-20">
          <mxCell style="shape=cylinder;whiteSpace=wrap;html=1;boundedLbl=1;rounded=0;labelBackgroundColor=none;fillColor=#438DD5;fontSize=9;fontColor=#ffffff;align=center;strokeColor=#3C7FC0;metaEdit=1;points=[[0.5,0,0],[1,0.25,0],[1,0.5,0],[1,0.75,0],[0.5,1,0],[0,0.75,0],[0,0.5,0],[0,0.25,0]];metaData={&quot;c4Type&quot;:{&quot;editable&quot;:false}};" vertex="1" parent="v5h-tJ-QY-LsD-NnWijm-10">
            <mxGeometry x="380" y="130" width="90" height="70" as="geometry" />
          </mxCell>
        </object>
        <object placeholders="1" c4Type="Database" c4Technology="Technology" c4Description="External" label="%c4Type%&lt;div style=&quot;font-size: 9px;&quot;&gt;[Container:&amp;nbsp;%c4Technology%]&lt;/div&gt;&lt;br style=&quot;font-size: 9px;&quot;&gt;&lt;div style=&quot;font-size: 9px;&quot;&gt;%c4Description%&lt;/div&gt;" id="v5h-tJ-QY-LsD-NnWijm-21">
          <mxCell style="shape=cylinder;whiteSpace=wrap;html=1;boundedLbl=1;rounded=1;labelBackgroundColor=none;fillColor=#999999;fontSize=10;fontColor=#ffffff;align=center;strokeColor=#8A8A8A;metaEdit=1;points=[[0.5,0,0],[1,0.25,0],[1,0.5,0],[1,0.75,0],[0.5,1,0],[0,0.75,0],[0,0.5,0],[0,0.25,0]];metaData={&quot;c4Type&quot;:{&quot;editable&quot;:false}};arcSize=10;" vertex="1" parent="v5h-tJ-QY-LsD-NnWijm-10">
            <mxGeometry x="480" y="130" width="90" height="70" as="geometry" />
          </mxCell>
        </object>
        <object placeholders="1" c4Type="Relationship" c4Technology="tecnologia" c4Description="Relação" label="&lt;div style=&quot;text-align: left; font-size: 9px;&quot;&gt;&lt;div style=&quot;text-align: center; font-size: 9px;&quot;&gt;&lt;b style=&quot;font-size: 9px;&quot;&gt;%c4Description%&lt;/b&gt;&lt;/div&gt;&lt;div style=&quot;text-align: center; font-size: 9px;&quot;&gt;[%c4Technology%]&lt;/div&gt;&lt;/div&gt;" id="v5h-tJ-QY-LsD-NnWijm-22">
          <mxCell style="edgeStyle=none;rounded=0;html=1;jettySize=auto;orthogonalLoop=1;strokeColor=#707070;strokeWidth=2;fontColor=#707070;jumpStyle=none;dashed=1;metaEdit=1;metaData={&quot;c4Type&quot;:{&quot;editable&quot;:false}};fontSize=9;" edge="1" parent="v5h-tJ-QY-LsD-NnWijm-10">
            <mxGeometry width="160" relative="1" as="geometry">
              <mxPoint x="536" y="74.5" as="sourcePoint" />
              <mxPoint x="676" y="74.5" as="targetPoint" />
            </mxGeometry>
          </mxCell>
        </object>
        <object placeholders="1" c4Name="Autoridade da Saúde" c4Type="Persona" c4Description="Secretarias de saúde&#xa;Municipais, Estaduais&#xa;ou Federais, vigilâncias&#xa;sanitárias&#xa;e epidemológicas" label="&lt;b&gt;%c4Name%&lt;/b&gt;&lt;div&gt;[%c4Type%]&lt;/div&gt;&lt;br&gt;&lt;div&gt;%c4Description%&lt;/div&gt;" id="v5h-tJ-QY-LsD-NnWijm-24">
          <mxCell style="html=1;dashed=0;whitespace=wrap;fillColor=#08427b;strokeColor=none;fontColor=#ffffff;shape=mxgraph.c4.person;align=center;metaEdit=1;points=[[0.5,0,0],[1,0.5,0],[1,0.75,0],[0.75,1,0],[0.5,1,0],[0.25,1,0],[0,0.75,0],[0,0.5,0]];metaData={&quot;c4Type&quot;:{&quot;editable&quot;:false}};" vertex="1" parent="1">
            <mxGeometry x="530" y="-40" width="150" height="180" as="geometry" />
          </mxCell>
        </object>
        <object placeholders="1" c4Name="Profissional da Saúde" c4Type="Persona" c4Description="Médicos, enfermeiros,&#xa;técnicos de enfermagem&#xa;e agentes comunitários&#xa;de saúde" label="&lt;b&gt;%c4Name%&lt;/b&gt;&lt;div&gt;[%c4Type%]&lt;/div&gt;&lt;br&gt;&lt;div&gt;%c4Description%&lt;/div&gt;" id="v5h-tJ-QY-LsD-NnWijm-25">
          <mxCell style="html=1;dashed=0;whitespace=wrap;fillColor=#08427b;strokeColor=none;fontColor=#ffffff;shape=mxgraph.c4.person;align=center;metaEdit=1;points=[[0.5,0,0],[1,0.5,0],[1,0.75,0],[0.75,1,0],[0.5,1,0],[0.25,1,0],[0,0.75,0],[0,0.5,0]];metaData={&quot;c4Type&quot;:{&quot;editable&quot;:false}};" vertex="1" parent="1">
            <mxGeometry x="870" y="335" width="159.5" height="180" as="geometry" />
          </mxCell>
        </object>
        <mxCell id="v5h-tJ-QY-LsD-NnWijm-26" style="edgeStyle=none;rounded=0;orthogonalLoop=1;jettySize=auto;html=1;dashed=1;strokeColor=#707070;strokeWidth=2;fontColor=#707070;exitX=0.5;exitY=1;exitDx=0;exitDy=0;entryX=0.75;entryY=0;entryDx=0;entryDy=0;entryPerimeter=0;" edge="1" parent="1" source="v5h-tJ-QY-LsD-NnWijm-33" target="v5h-tJ-QY-LsD-NnWijm-8">
          <mxGeometry relative="1" as="geometry">
            <mxPoint x="402" y="370" as="targetPoint" />
            <mxPoint x="267" y="180" as="sourcePoint" />
          </mxGeometry>
        </mxCell>
        <mxCell id="v5h-tJ-QY-LsD-NnWijm-29" value="Pode visualizar em tempo real a incidência de casos de dengue, além de informar os sintomas e casos de suspeita de dengue" style="text;html=1;align=center;verticalAlign=middle;whiteSpace=wrap;rounded=0;" vertex="1" parent="1">
          <mxGeometry x="-135" y="260" width="180" height="60" as="geometry" />
        </mxCell>
        <mxCell id="v5h-tJ-QY-LsD-NnWijm-31" value="Recebe orientações e dicas de prevenção à dengue" style="text;html=1;align=center;verticalAlign=middle;whiteSpace=wrap;rounded=0;" vertex="1" parent="1">
          <mxGeometry x="120" y="25" width="120" height="50" as="geometry" />
        </mxCell>
        <mxCell id="v5h-tJ-QY-LsD-NnWijm-32" style="edgeStyle=none;rounded=0;orthogonalLoop=1;jettySize=auto;html=1;dashed=1;strokeColor=#707070;strokeWidth=2;fontColor=#707070;exitX=0;exitY=0.5;exitDx=0;exitDy=0;" edge="1" parent="1" source="v5h-tJ-QY-LsD-NnWijm-31">
          <mxGeometry relative="1" as="geometry">
            <mxPoint x="150" y="250" as="sourcePoint" />
            <mxPoint x="30" y="50" as="targetPoint" />
          </mxGeometry>
        </mxCell>
        <mxCell id="v5h-tJ-QY-LsD-NnWijm-34" value="" style="edgeStyle=orthogonalEdgeStyle;rounded=0;orthogonalLoop=1;jettySize=auto;html=1;dashed=1;strokeColor=#707070;strokeWidth=2;fontColor=#707070;exitX=0;exitY=0.75;exitDx=0;exitDy=0;exitPerimeter=0;endArrow=none;endFill=0;entryX=0.5;entryY=0;entryDx=0;entryDy=0;" edge="1" parent="1" source="v5h-tJ-QY-LsD-NnWijm-24" target="v5h-tJ-QY-LsD-NnWijm-33">
          <mxGeometry relative="1" as="geometry">
            <mxPoint x="429" y="360" as="targetPoint" />
            <mxPoint x="429" y="170" as="sourcePoint" />
          </mxGeometry>
        </mxCell>
        <mxCell id="v5h-tJ-QY-LsD-NnWijm-33" value="Pode visualizar em tempo real a incidência de casos de dengue, além de&amp;nbsp;acessar ferramentas de análise para identificar tendências e áreas de risco" style="text;html=1;align=center;verticalAlign=middle;whiteSpace=wrap;rounded=0;" vertex="1" parent="1">
          <mxGeometry x="380" y="200" width="200" height="70" as="geometry" />
        </mxCell>
        <mxCell id="v5h-tJ-QY-LsD-NnWijm-35" value="Pode visualizar em tempo real a incidência de casos de dengue, além de confirmar e reportar casos diagnosticados de dengue" style="text;html=1;align=center;verticalAlign=middle;whiteSpace=wrap;rounded=0;" vertex="1" parent="1">
          <mxGeometry x="600" y="400" width="190" height="50" as="geometry" />
        </mxCell>
        <mxCell id="v5h-tJ-QY-LsD-NnWijm-36" style="edgeStyle=none;rounded=0;orthogonalLoop=1;jettySize=auto;html=1;dashed=1;strokeColor=#707070;strokeWidth=2;fontColor=#707070;entryX=1;entryY=0.5;entryDx=0;entryDy=0;endArrow=none;endFill=0;exitX=0;exitY=0.5;exitDx=0;exitDy=0;exitPerimeter=0;" edge="1" parent="1" source="v5h-tJ-QY-LsD-NnWijm-25" target="v5h-tJ-QY-LsD-NnWijm-35">
          <mxGeometry relative="1" as="geometry">
            <mxPoint x="494" y="370" as="targetPoint" />
            <mxPoint x="770" y="460" as="sourcePoint" />
          </mxGeometry>
        </mxCell>
        <mxCell id="v5h-tJ-QY-LsD-NnWijm-37" style="edgeStyle=none;rounded=0;orthogonalLoop=1;jettySize=auto;html=1;dashed=1;strokeColor=#707070;strokeWidth=2;fontColor=#707070;entryX=1;entryY=0.5;entryDx=0;entryDy=0;entryPerimeter=0;exitX=0;exitY=0.5;exitDx=0;exitDy=0;" edge="1" parent="1" source="v5h-tJ-QY-LsD-NnWijm-35" target="v5h-tJ-QY-LsD-NnWijm-8">
          <mxGeometry relative="1" as="geometry">
            <mxPoint x="590" y="360" as="targetPoint" />
            <mxPoint x="580" y="293" as="sourcePoint" />
          </mxGeometry>
        </mxCell>
        <mxCell id="v5h-tJ-QY-LsD-NnWijm-40" style="edgeStyle=none;rounded=0;orthogonalLoop=1;jettySize=auto;html=1;dashed=1;strokeColor=#707070;strokeWidth=2;fontColor=#707070;entryX=0.5;entryY=0;entryDx=0;entryDy=0;endArrow=none;endFill=0;exitX=0.5;exitY=1;exitDx=0;exitDy=0;exitPerimeter=0;" edge="1" parent="1" source="v5h-tJ-QY-LsD-NnWijm-6" target="v5h-tJ-QY-LsD-NnWijm-29">
          <mxGeometry relative="1" as="geometry">
            <mxPoint x="-170" y="170" as="sourcePoint" />
            <mxPoint x="384" y="370" as="targetPoint" />
          </mxGeometry>
        </mxCell>
        <mxCell id="v5h-tJ-QY-LsD-NnWijm-41" style="edgeStyle=orthogonalEdgeStyle;rounded=0;orthogonalLoop=1;jettySize=auto;html=1;dashed=1;strokeColor=#707070;strokeWidth=2;fontColor=#707070;entryX=0;entryY=0.75;entryDx=0;entryDy=0;entryPerimeter=0;exitX=0.5;exitY=1;exitDx=0;exitDy=0;" edge="1" parent="1" source="v5h-tJ-QY-LsD-NnWijm-29" target="v5h-tJ-QY-LsD-NnWijm-8">
          <mxGeometry relative="1" as="geometry">
            <mxPoint x="-250" y="460" as="sourcePoint" />
            <mxPoint x="-151.75" y="529" as="targetPoint" />
          </mxGeometry>
        </mxCell>
        <mxCell id="v5h-tJ-QY-LsD-NnWijm-44" value="Recebe relatórios e alertas automáticos" style="text;html=1;align=center;verticalAlign=middle;whiteSpace=wrap;rounded=0;" vertex="1" parent="1">
          <mxGeometry x="260" y="32.5" width="120" height="35" as="geometry" />
        </mxCell>
        <mxCell id="v5h-tJ-QY-LsD-NnWijm-45" style="edgeStyle=none;rounded=0;orthogonalLoop=1;jettySize=auto;html=1;dashed=1;strokeColor=#707070;strokeWidth=2;fontColor=#707070;entryX=0.25;entryY=1;entryDx=0;entryDy=0;endArrow=none;endFill=0;exitX=0.75;exitY=0;exitDx=0;exitDy=0;exitPerimeter=0;" edge="1" parent="1" source="v5h-tJ-QY-LsD-NnWijm-7" target="v5h-tJ-QY-LsD-NnWijm-44">
          <mxGeometry relative="1" as="geometry">
            <mxPoint x="220" y="160" as="sourcePoint" />
            <mxPoint x="220" y="85" as="targetPoint" />
          </mxGeometry>
        </mxCell>
        <mxCell id="v5h-tJ-QY-LsD-NnWijm-46" style="edgeStyle=none;rounded=0;orthogonalLoop=1;jettySize=auto;html=1;dashed=1;strokeColor=#707070;strokeWidth=2;fontColor=#707070;exitX=1;exitY=0.5;exitDx=0;exitDy=0;entryX=0;entryY=0.5;entryDx=0;entryDy=0;entryPerimeter=0;" edge="1" parent="1" source="v5h-tJ-QY-LsD-NnWijm-44" target="v5h-tJ-QY-LsD-NnWijm-24">
          <mxGeometry relative="1" as="geometry">
            <mxPoint x="130" y="60" as="sourcePoint" />
            <mxPoint x="40" y="60" as="targetPoint" />
          </mxGeometry>
        </mxCell>
        <object placeholders="1" c4Type="Base de dados" c4Technology="PostgreSQL" c4Description="Armazena dados dos usuários e informações&#xa;referentes à incidência de dengue" label="%c4Type%&lt;div style=&quot;font-size: 9px;&quot;&gt;[Container:&amp;nbsp;%c4Technology%]&lt;/div&gt;&lt;br style=&quot;font-size: 9px;&quot;&gt;&lt;div style=&quot;font-size: 9px;&quot;&gt;%c4Description%&lt;/div&gt;" id="v5h-tJ-QY-LsD-NnWijm-47">
          <mxCell style="shape=cylinder;whiteSpace=wrap;html=1;boundedLbl=1;rounded=0;labelBackgroundColor=none;fillColor=#438DD5;fontSize=9;fontColor=#ffffff;align=center;strokeColor=#3C7FC0;metaEdit=1;points=[[0.5,0,0],[1,0.25,0],[1,0.5,0],[1,0.75,0],[0.5,1,0],[0,0.75,0],[0,0.5,0],[0,0.25,0]];metaData={&quot;c4Type&quot;:{&quot;editable&quot;:false}};" vertex="1" parent="1">
            <mxGeometry x="330.75" y="610" width="189.5" height="90" as="geometry" />
          </mxCell>
        </object>
      </root>
    </mxGraphModel>
  </diagram>
</mxfile>
